<svg xmlns="http://www.w3.org/2000/svg" version="1.1" viewBox="0.00 0.00 150.00 150.00">
<g stroke-width="2.00" fill="none" stroke-linecap="butt">
<path stroke="#b9a599" vector-effect="non-scaling-stroke" d="
  M 77.51 92.27
  Q 77.65 93.25 77.00 93.32
  Q 73.94 93.66 70.29 93.28
  Q 69.79 93.23 69.34 93.44
  Q 68.36 93.88 67.36 93.22"
/>
<path stroke="#97a7a4" vector-effect="non-scaling-stroke" d="
  M 67.36 93.22
  Q 67.00 90.17 66.75 87.07
  C 66.52 84.25 65.14 82.67 66.54 79.77
  C 70.40 71.78 75.67 64.03 72.29 54.80
  C 71.76 53.33 70.10 51.92 68.63 52.55
  Q 59.39 56.51 58.88 66.37
  A 0.61 0.61 0.0 0 1 57.77 66.67
  C 48.59 52.94 35.81 71.35 52.66 77.13
  Q 58.04 78.98 63.78 81.06
  Q 64.80 81.43 65.04 82.49
  L 65.87 86.18
  A 0.41 0.41 0.0 0 1 65.24 86.61
  Q 62.98 85.08 60.42 85.81
  Q 59.84 85.98 59.79 86.57
  C 59.65 88.36 60.45 89.23 62.20 89.69
  C 63.96 90.15 67.60 90.20 66.32 93.29"
/>
<path stroke="#b9a599" vector-effect="non-scaling-stroke" d="
  M 66.32 93.29
  L 64.82 93.86
  Q 64.29 94.06 64.51 94.58
  L 70.30 108.43
  A 2.29 2.24 89.1 0 0 71.55 109.67
  Q 77.86 112.22 84.01 109.51
  A 1.52 1.52 0.0 0 0 84.87 108.49
  L 88.17 94.78
  Q 88.56 93.18 86.95 93.52
  Q 85.91 93.74 85.06 93.26
  Q 84.61 93.01 84.58 92.50
  L 84.16 86.77"
/>
<path stroke="#97a7a4" vector-effect="non-scaling-stroke" d="
  M 84.16 86.77
  L 84.36 86.37
  Q 84.58 85.91 85.08 85.79
  C 87.73 85.16 91.25 84.66 93.00 82.52
  C 95.30 79.69 92.74 75.11 89.36 76.85
  Q 86.55 78.30 85.35 80.34
  A 0.47 0.47 0.0 0 1 84.48 80.01
  L 85.67 73.53
  A 1.15 1.15 0.0 0 1 86.71 72.59
  C 92.59 72.13 109.71 73.32 107.83 63.08
  C 106.78 57.34 98.80 58.69 96.11 61.58
  A 0.76 0.76 0.0 0 1 94.81 60.88
  Q 96.34 54.70 92.37 49.74
  C 90.06 46.87 86.67 45.06 84.33 49.35
  C 80.63 56.15 83.16 62.99 84.57 70.03
  Q 85.00 72.13 84.49 74.46
  Q 83.25 80.17 83.29 86.04"
/>
<path stroke="#b9a599" vector-effect="non-scaling-stroke" d="
  M 83.29 86.04
  L 83.62 92.62
  A 0.69 0.69 0.0 0 1 82.94 93.35
  L 79.26 93.39
  A 0.82 0.82 0.0 0 1 78.43 92.61
  L 78.33 90.27"
/>
<path stroke="#97a7a4" vector-effect="non-scaling-stroke" d="
  M 78.33 90.27
  L 77.66 75.48
  A 0.88 0.86 -19.1 0 1 78.04 74.71
  Q 83.02 71.24 81.83 65.02
  A 1.34 1.34 0.0 0 0 79.45 64.46
  L 78.24 66.04
  Q 77.55 66.95 77.56 65.81
  L 77.75 46.10
  Q 77.75 45.58 78.10 45.20
  Q 85.10 37.41 92.05 29.29
  C 94.96 25.90 104.96 8.78 96.61 6.59
  Q 82.20 2.81 75.62 15.56
  Q 75.05 16.66 74.30 17.84
  Q 73.97 18.37 73.67 17.82
  C 71.71 14.28 70.62 11.63 66.52 10.03
  Q 61.90 8.22 58.27 12.53
  C 55.29 16.07 54.40 18.51 56.44 22.92
  C 60.69 32.14 69.26 38.75 76.45 45.04
  Q 76.79 45.34 76.79 45.80
  L 76.85 80.04
  Q 76.85 80.64 76.42 80.21
  Q 74.72 78.51 72.33 79.16
  A 1.46 1.45 68.9 0 0 71.42 81.23
  Q 73.26 84.81 76.97 86.23
  A 0.52 0.51 -81.1 0 1 77.29 86.68
  L 77.51 92.27"
/>
<path stroke="#504c3e" vector-effect="non-scaling-stroke" d="
  M 78.33 90.27
  Q 78.34 92.49 77.51 92.27"
/>
<path stroke="#504c3e" vector-effect="non-scaling-stroke" d="
  M 84.16 86.77
  Q 84.18 87.23 84.11 87.47
  Q 83.86 88.29 83.60 87.27
  L 83.29 86.04"
/>
<path stroke="#504c3e" vector-effect="non-scaling-stroke" d="
  M 67.36 93.22
  Q 66.67 93.07 66.32 93.29"
/>
<path stroke="#868686" vector-effect="non-scaling-stroke" d="
  M 39.3059 120.8576
  A 0.88 0.88 0.0 0 0 38.4244 119.9792
  L 37.4644 119.9808
  A 0.88 0.88 0.0 0 0 36.5859 120.8624
  L 36.5941 125.5424
  A 0.88 0.88 0.0 0 0 37.4756 126.4208
  L 38.4356 126.4192
  A 0.88 0.88 0.0 0 0 39.3141 125.5376
  L 39.3059 120.8576"
/>
<path stroke="#868686" vector-effect="non-scaling-stroke" d="
  M 29.79 125.83
  A 1.38 1.38 0.0 0 0 31.78 127.01
  L 33.34 126.24
  A 1.38 1.38 0.0 0 0 34.12 125.03
  L 34.19 121.52
  A 1.38 1.38 0.0 0 0 32.74 120.11
  L 30.91 120.21
  A 1.38 1.38 0.0 0 0 29.60 121.65
  L 29.79 125.83"
/>
<path stroke="#868686" vector-effect="non-scaling-stroke" d="
  M 44.3741 122.1552
  A 1.31 1.31 0.0 0 0 43.0505 120.8590
  L 42.8305 120.8613
  A 1.31 1.31 0.0 0 0 41.5343 122.1850
  L 41.5659 125.2048
  A 1.31 1.31 0.0 0 0 42.8895 126.5010
  L 43.1095 126.4987
  A 1.31 1.31 0.0 0 0 44.4057 125.1750
  L 44.3741 122.1552"
/>
<path stroke="#868686" vector-effect="non-scaling-stroke" d="
  M 48.61 122.53
  Q 48.78 122.71 49.00 122.73
  Q 49.49 122.78 49.47 122.29
  C 49.39 120.62 46.93 120.20 46.67 122.08
  A 1.37 1.35 35.1 0 0 46.83 122.95
  L 47.55 124.23
  Q 47.81 124.69 47.29 124.76
  Q 47.13 124.78 46.96 124.79
  A 0.38 0.37 -4.3 0 0 46.60 125.20
  Q 46.73 126.51 48.08 126.52
  A 1.29 1.29 0.0 0 0 49.26 124.68
  L 48.34 122.72
  A 0.17 0.17 0.0 0 1 48.61 122.53"
/>
<path stroke="#868686" vector-effect="non-scaling-stroke" d="
  M 53.19 122.91
  Q 53.49 123.11 53.86 123.04
  Q 54.44 122.94 54.37 122.35
  Q 54.31 121.89 54.08 121.48
  A 1.39 1.38 29.8 0 0 51.49 122.18
  L 51.56 125.31
  A 1.37 1.37 0.0 0 0 54.19 125.84
  Q 54.42 125.33 54.32 124.79
  Q 54.24 124.30 53.74 124.37
  L 53.26 124.43
  Q 52.70 124.51 52.85 123.97
  Q 52.96 123.56 52.90 123.10
  Q 52.83 122.68 53.19 122.91"
/>
<path stroke="#868686" vector-effect="non-scaling-stroke" d="
  M 59.3318 122.1193
  A 1.26 1.26 0.0 0 0 58.0895 120.8418
  L 57.8695 120.8387
  A 1.26 1.26 0.0 0 0 56.5921 122.0810
  L 56.5482 125.2207
  A 1.26 1.26 0.0 0 0 57.7905 126.4982
  L 58.0105 126.5013
  A 1.26 1.26 0.0 0 0 59.2879 125.2590
  L 59.3318 122.1193"
/>
<path stroke="#868686" vector-effect="non-scaling-stroke" d="
  M 63.11 120.93
  L 62.81 120.88
  Q 61.63 120.71 61.63 121.89
  L 61.61 125.55
  A 0.60 0.60 0.0 0 0 62.18 126.16
  L 63.99 126.28
  A 0.45 0.45 0.0 0 0 64.45 125.70
  Q 63.99 124.18 64.29 122.60
  A 1.42 1.41 9.9 0 0 63.11 120.93"
/>
<path stroke="#868686" vector-effect="non-scaling-stroke" d="
  M 72.46 124.31
  L 72.98 121.73
  Q 73.12 121.07 72.47 120.87
  Q 72.14 120.77 71.81 120.81
  Q 71.25 120.88 71.37 121.43
  Q 71.67 122.86 71.03 125.00
  Q 70.58 126.52 72.27 126.53
  Q 72.80 126.54 72.76 126.01
  Q 72.73 125.59 72.56 125.22
  Q 72.36 124.78 72.46 124.31"
/>
<path stroke="#868686" vector-effect="non-scaling-stroke" d="
  M 77.9899 122.1364
  A 1.28 1.28 0.0 0 0 76.7347 120.8321
  L 76.5747 120.8290
  A 1.28 1.28 0.0 0 0 75.2704 122.0842
  L 75.2101 125.2236
  A 1.28 1.28 0.0 0 0 76.4653 126.5279
  L 76.6253 126.5310
  A 1.28 1.28 0.0 0 0 77.9296 125.2758
  L 77.9899 122.1364"
/>
<path stroke="#868686" vector-effect="non-scaling-stroke" d="
  M 86.64 122.02
  L 87.02 121.82
  A 0.47 0.47 0.0 0 0 86.99 120.96
  Q 85.98 120.56 85.42 121.28
  Q 85.09 121.70 85.15 122.52
  Q 85.27 124.09 85.23 125.72
  A 0.72 0.71 8.0 0 0 85.78 126.44
  Q 86.37 126.58 86.97 126.43
  A 0.47 0.47 0.0 0 0 87.13 125.59
  L 86.56 125.17
  A 0.46 0.45 -50.5 0 1 86.50 124.49
  L 86.93 124.02
  A 0.68 0.68 0.0 0 0 86.75 122.96
  Q 86.61 122.89 86.51 122.77
  Q 86.08 122.30 86.64 122.02"
/>
<path stroke="#868686" vector-effect="non-scaling-stroke" d="
  M 90.39 124.82
  Q 90.24 124.82 90.11 124.76
  Q 89.55 124.49 89.48 125.10
  Q 89.40 125.75 89.89 126.12
  Q 91.46 127.32 92.20 125.50
  Q 92.50 124.78 91.73 123.79
  A 0.73 0.70 17.4 0 1 91.61 123.57
  Q 91.32 122.81 91.76 122.74
  Q 92.38 122.64 92.34 122.01
  Q 92.28 121.25 91.49 120.97
  Q 89.85 120.39 89.51 122.04
  A 0.97 0.94 -54.8 0 0 89.62 122.73
  L 90.60 124.43
  A 0.26 0.26 0.0 0 1 90.39 124.82"
/>
<path stroke="#868686" vector-effect="non-scaling-stroke" d="
  M 106.36 122.32
  Q 106.45 122.09 106.75 121.96
  Q 107.14 121.78 107.27 121.46
  Q 107.46 121.00 106.97 120.91
  Q 105.19 120.58 105.24 122.23
  Q 105.28 124.00 105.20 125.80
  Q 105.17 126.43 105.80 126.48
  Q 106.43 126.54 107.01 126.28
  Q 107.78 125.94 107.06 125.51
  Q 105.89 124.81 107.00 123.94
  A 0.44 0.44 0.0 0 0 107.06 123.30
  Q 106.87 123.09 106.61 122.97
  Q 106.17 122.77 106.36 122.32"
/>
<path stroke="#868686" vector-effect="non-scaling-stroke" d="
  M 112.22 122.10
  A 1.19 1.19 0.0 0 0 111.03 120.91
  L 110.57 120.91
  A 1.19 1.19 0.0 0 0 109.38 122.10
  L 109.38 125.26
  A 1.19 1.19 0.0 0 0 110.57 126.45
  L 111.03 126.45
  A 1.19 1.19 0.0 0 0 112.22 125.26
  L 112.22 122.10"
/>
<path stroke="#868686" vector-effect="non-scaling-stroke" d="
  M 120.7685 122.1772
  A 1.31 1.31 0.0 0 0 119.4746 120.8513
  L 119.2946 120.8491
  A 1.31 1.31 0.0 0 0 117.9687 122.1430
  L 117.9315 125.1828
  A 1.31 1.31 0.0 0 0 119.2254 126.5087
  L 119.4054 126.5109
  A 1.31 1.31 0.0 0 0 120.7313 125.2170
  L 120.7685 122.1772"
/>
<path stroke="#868686" vector-effect="non-scaling-stroke" d="
  M 66.74 126.32
  L 68.62 126.32
  A 0.28 0.28 0.0 0 0 68.90 126.04
  L 68.90 125.83
  A 4.95 1.13 -89.8 0 0 67.79 120.88
  L 67.61 120.88
  A 4.95 1.13 -89.8 0 0 66.46 125.83
  L 66.46 126.04
  A 0.28 0.28 0.0 0 0 66.74 126.32"
/>
<path stroke="#868686" vector-effect="non-scaling-stroke" d="
  M 82.87 121.56
  A 0.33 0.33 0.0 0 0 82.55 121.24
  L 80.61 121.20
  A 0.33 0.33 0.0 0 0 80.27 121.52
  L 80.20 125.89
  A 0.33 0.33 0.0 0 0 80.53 126.22
  L 82.69 126.19
  A 0.33 0.33 0.0 0 0 83.01 125.85
  L 82.87 121.56"
/>
<path stroke="#868686" vector-effect="non-scaling-stroke" d="
  M 95.40 121.11
  A 0.27 0.27 0.0 0 1 95.31 121.11
  L 94.83 121.01
  A 0.27 0.27 0.0 0 0 94.51 121.31
  L 95.10 126.05
  A 0.27 0.27 0.0 0 0 95.37 126.29
  L 95.91 126.27
  A 0.27 0.27 0.0 0 0 96.17 126.04
  L 96.76 121.28
  A 0.27 0.27 0.0 0 0 96.46 120.98
  L 95.40 121.11"
/>
<path stroke="#868686" vector-effect="non-scaling-stroke" d="
  M 100.95 124.13
  A 0.10 0.10 0.0 0 1 100.75 124.10
  Q 100.92 121.58 99.75 120.97
  Q 98.99 120.57 98.98 121.43
  L 98.96 126.00
  A 0.29 0.29 0.0 0 0 99.25 126.29
  L 102.70 126.26
  Q 102.91 126.26 102.91 126.05
  L 102.94 121.48
  A 0.55 0.55 0.0 0 0 102.26 120.94
  L 101.92 121.03
  A 0.99 0.98 81.6 0 0 101.19 122.02
  Q 101.24 123.10 100.95 124.13"
/>
<path stroke="#868686" vector-effect="non-scaling-stroke" d="
  M 115.7560 121.3689
  A 0.40 0.40 0.0 0 0 115.3553 120.9696
  L 114.8753 120.9704
  A 0.40 0.40 0.0 0 0 114.4760 121.3711
  L 114.4840 125.9511
  A 0.40 0.40 0.0 0 0 114.8847 126.3504
  L 115.3647 126.3496
  A 0.40 0.40 0.0 0 0 115.7640 125.9489
  L 115.7560 121.3689"
/>
<path stroke="#82a39c" vector-effect="non-scaling-stroke" d="
  M 87.97 7.13
  Q 80.02 8.84 76.23 16.65"
/>
<path stroke="#4b8f79" vector-effect="non-scaling-stroke" d="
  M 76.23 16.65
  Q 75.02 17.66 74.06 19.83
  A 0.40 0.40 0.0 0 1 73.30 19.70
  Q 72.96 16.14 70.09 13.56"
/>
<path stroke="#82a39c" vector-effect="non-scaling-stroke" d="
  M 70.09 13.56
  Q 66.67 9.76 61.23 11.47"
/>
<path stroke="#4b8f79" vector-effect="non-scaling-stroke" d="
  M 61.23 11.47
  Q 53.11 16.02 57.62 23.37
  Q 65.14 35.60 76.69 43.86
  A 1.15 1.15 0.0 0 0 78.23 43.68
  Q 85.05 35.89 91.65 28.18
  Q 97.51 21.33 98.92 12.78
  C 100.09 5.65 92.87 6.59 87.97 7.13"
/>
<path stroke="#9ee4cb" vector-effect="non-scaling-stroke" d="
  M 61.23 11.47
  L 60.51 13.40
  A 0.36 0.36 0.0 0 0 61.02 13.85
  Q 61.45 13.62 61.74 13.17
  A 1.40 1.38 -80.9 0 1 62.54 12.58
  Q 64.98 11.91 67.49 12.16
  A 1.40 1.39 -16.8 0 1 68.41 12.65
  Q 69.60 14.10 70.09 13.56"
/>
<path stroke="#9ee4cb" vector-effect="non-scaling-stroke" d="
  M 76.23 16.65
  Q 82.30 11.47 86.40 8.90
  Q 87.94 7.93 90.34 8.15
  A 0.44 0.43 4.7 0 0 90.81 7.76
  L 90.83 7.48
  Q 90.84 7.26 90.63 7.25
  L 87.97 7.13"
/>
<path stroke="#82a39c" vector-effect="non-scaling-stroke" d="
  M 80.14 68.41
  C 79.90 70.09 78.68 71.04 78.27 72.48
  Q 77.98 73.50 78.71 72.73
  Q 79.87 71.53 80.55 70.01
  C 81.19 68.57 80.66 67.29 80.96 65.76
  A 0.45 0.45 0.0 0 0 80.19 65.37
  Q 79.09 66.58 78.27 68.48
  Q 78.11 68.84 78.29 69.21
  A 0.31 0.31 0.0 0 0 78.87 69.03
  Q 78.69 67.98 79.70 67.94
  A 0.42 0.41 2.2 0 1 80.14 68.41"
/>
<path stroke="#82a39c" vector-effect="non-scaling-stroke" d="
  M 74.44 81.05
  L 75.94 82.26
  Q 76.48 82.70 76.21 82.06
  Q 75.21 79.70 72.80 80.21
  A 0.53 0.52 -20.7 0 0 72.45 80.98
  Q 73.89 83.49 76.47 84.80
  Q 77.07 85.11 76.70 84.55
  C 75.92 83.36 73.92 82.78 73.73 81.45
  Q 73.57 80.34 74.44 81.05"
/>
<path stroke="#9ee4cb" vector-effect="non-scaling-stroke" d="
  M 91.9280 10.0538
  A 1.83 0.37 -2.7 0 0 90.0826 9.7704
  A 1.83 0.37 -2.7 0 0 88.2720 10.2262
  A 1.83 0.37 -2.7 0 0 90.1174 10.5096
  A 1.83 0.37 -2.7 0 0 91.9280 10.0538"
/>
<path stroke="#82a39c" vector-effect="non-scaling-stroke" d="
  M 102.02 60.00
  Q 98.86 60.04 96.58 62.27"
/>
<path stroke="#4b8f79" vector-effect="non-scaling-stroke" d="
  M 96.58 62.27
  L 95.21 62.95
  A 0.85 0.85 0.0 0 1 94.01 61.96
  C 95.60 56.17 93.57 50.24 88.25 47.38
  A 1.00 0.99 41.6 0 0 87.21 47.44
  C 79.81 52.71 84.44 64.79 85.86 71.63
  A 0.49 0.49 0.0 0 0 86.47 72.00
  L 88.53 71.38
  Q 88.99 71.25 89.47 71.28
  Q 97.58 71.91 103.25 69.78
  C 108.39 67.85 109.15 58.80 102.02 60.00"
/>
<path stroke="#9ee4cb" vector-effect="non-scaling-stroke" d="
  M 96.58 62.27
  L 102.41 61.47
  Q 102.92 61.40 102.87 60.89
  Q 102.82 60.36 102.02 60.00"
/>
<path stroke="#4b8f79" vector-effect="non-scaling-stroke" d="
  M 90.64 78.68
  Q 90.45 79.71 89.54 80.35
  Q 87.14 82.03 85.09 84.18
  Q 84.66 84.63 85.28 84.56
  Q 88.85 84.16 91.26 82.61
  C 94.54 80.50 91.96 75.40 88.51 78.29
  Q 86.70 79.82 85.15 81.42
  A 0.53 0.51 -27.6 0 0 85.02 81.81
  L 85.11 82.53
  A 0.20 0.19 -24.3 0 0 85.43 82.65
  L 90.18 78.42
  A 0.28 0.28 0.0 0 1 90.64 78.68"
/>
<path stroke="#82a39c" vector-effect="non-scaling-stroke" d="
  M 68.91 72.39
  L 71.97 65.47"
/>
<path stroke="#4b8f79" vector-effect="non-scaling-stroke" d="
  M 71.97 65.47
  Q 73.60 59.62 71.12 54.51
  A 1.99 1.98 64.7 0 0 68.51 53.57
  Q 60.13 57.40 59.68 66.75
  Q 59.49 70.87 57.35 67.50
  C 55.05 63.89 47.02 58.63 45.63 66.51
  C 45.09 69.60 45.63 72.21 47.98 73.78
  C 52.65 76.91 59.12 78.62 64.71 80.41
  A 0.69 0.68 -69.3 0 0 65.54 80.03
  L 68.91 72.39"
/>
<path stroke="#9ee4cb" vector-effect="non-scaling-stroke" d="
  M 71.97 65.47
  Q 72.29 64.49 72.03 63.87
  A 0.23 0.23 0.0 0 0 71.59 63.91
  Q 70.93 66.92 69.19 69.45
  Q 67.57 71.79 68.91 72.39"
/>
<path stroke="#82a39c" vector-effect="non-scaling-stroke" d="
  M 64.68 89.10
  Q 64.93 89.18 65.26 89.12
  Q 65.38 89.10 65.38 88.98
  Q 65.38 88.83 65.37 88.67
  Q 65.35 88.38 65.06 88.40
  C 63.26 88.52 63.01 86.71 61.21 86.83
  A 0.44 0.44 0.0 0 0 60.92 87.57
  Q 62.06 88.77 63.76 88.89
  A 1.71 0.19 19.1 0 1 64.68 89.10"
/>
<path stroke="#9ee4cb" vector-effect="non-scaling-stroke" d="
  M 50.09 67.80
  Q 48.93 68.19 49.88 69.11
  Q 50.46 69.67 50.73 68.91
  L 50.85 68.58
  A 0.60 0.60 0.0 0 0 50.09 67.80"
/>
<path stroke="#ad7d4c" vector-effect="non-scaling-stroke" d="
  M 68.52 101.43
  Q 69.29 104.86 71.60 108.33
  Q 71.89 108.76 72.37 108.94
  Q 77.21 110.77 82.62 108.83
  Q 84.24 108.25 84.06 106.95
  Q 83.97 106.35 83.38 106.18
  L 82.37 105.90
  Q 81.87 105.76 81.95 105.24
  Q 82.23 103.30 82.98 101.49
  Q 83.72 99.70 83.90 101.71
  Q 83.95 102.30 83.66 103.74
  Q 83.61 103.97 83.84 104.03
  L 84.25 104.14
  A 0.51 0.51 0.0 0 0 84.88 103.77
  L 86.99 95.03
  Q 87.16 94.32 86.43 94.32
  L 66.89 94.38"
/>
<path stroke="#b9a599" vector-effect="non-scaling-stroke" d="
  M 66.89 94.38
  Q 66.19 94.02 65.90 94.73
  A 0.75 0.72 -46.1 0 0 65.90 95.32
  L 68.52 101.43"
/>
<path stroke="#f3d8b2" vector-effect="non-scaling-stroke" d="
  M 66.89 94.38
  Q 68.39 97.82 68.52 101.43"
/>
<path stroke="#868686" vector-effect="non-scaling-stroke" d="
  M 42.72 124.01
  Q 42.59 124.10 42.61 124.25
  Q 42.71 125.20 43.09 124.24
  Q 43.39 123.49 43.05 122.73
  Q 42.47 121.46 42.58 122.77
  Q 42.61 123.15 42.82 123.50
  Q 43.00 123.80 42.72 124.01"
/>
<path stroke="#868686" vector-effect="non-scaling-stroke" d="
  M 76.40 124.18
  Q 76.50 124.87 76.83 124.26
  Q 77.22 123.52 76.81 122.50
  Q 76.55 121.85 76.39 122.53
  Q 76.24 123.19 76.40 124.18"
/>
<path stroke="#868686" vector-effect="non-scaling-stroke" d="
  M 110.80 123.98
  Q 110.57 124.05 110.63 124.25
  Q 110.75 124.67 110.87 124.68
  Q 111.06 124.69 111.11 124.53
  Q 111.44 123.31 110.64 122.71
  Q 110.26 122.42 110.47 122.85
  L 110.91 123.71
  Q 111.01 123.91 110.80 123.98"
/>
<path stroke="#868686" vector-effect="non-scaling-stroke" d="
  M 119.00 123.88
  Q 118.62 124.54 119.12 124.82
  Q 119.67 125.13 119.64 124.51
  L 119.54 122.54
  A 0.30 0.30 0.0 0 0 118.94 122.51
  Q 118.89 122.85 119.04 123.23
  Q 119.18 123.57 119.00 123.88"
/>
</g>
<path fill="#ffffff" d="
  M 0.00 0.00
  L 150.00 0.00
  L 150.00 150.00
  L 0.00 150.00
  L 0.00 0.00
  Z
  M 77.51 92.27
  Q 77.65 93.25 77.00 93.32
  Q 73.94 93.66 70.29 93.28
  Q 69.79 93.23 69.34 93.44
  Q 68.36 93.88 67.36 93.22
  Q 67.00 90.17 66.75 87.07
  C 66.52 84.25 65.14 82.67 66.54 79.77
  C 70.40 71.78 75.67 64.03 72.29 54.80
  C 71.76 53.33 70.10 51.92 68.63 52.55
  Q 59.39 56.51 58.88 66.37
  A 0.61 0.61 0.0 0 1 57.77 66.67
  C 48.59 52.94 35.81 71.35 52.66 77.13
  Q 58.04 78.98 63.78 81.06
  Q 64.80 81.43 65.04 82.49
  L 65.87 86.18
  A 0.41 0.41 0.0 0 1 65.24 86.61
  Q 62.98 85.08 60.42 85.81
  Q 59.84 85.98 59.79 86.57
  C 59.65 88.36 60.45 89.23 62.20 89.69
  C 63.96 90.15 67.60 90.20 66.32 93.29
  L 64.82 93.86
  Q 64.29 94.06 64.51 94.58
  L 70.30 108.43
  A 2.29 2.24 89.1 0 0 71.55 109.67
  Q 77.86 112.22 84.01 109.51
  A 1.52 1.52 0.0 0 0 84.87 108.49
  L 88.17 94.78
  Q 88.56 93.18 86.95 93.52
  Q 85.91 93.74 85.06 93.26
  Q 84.61 93.01 84.58 92.50
  L 84.16 86.77
  L 84.36 86.37
  Q 84.58 85.91 85.08 85.79
  C 87.73 85.16 91.25 84.66 93.00 82.52
  C 95.30 79.69 92.74 75.11 89.36 76.85
  Q 86.55 78.30 85.35 80.34
  A 0.47 0.47 0.0 0 1 84.48 80.01
  L 85.67 73.53
  A 1.15 1.15 0.0 0 1 86.71 72.59
  C 92.59 72.13 109.71 73.32 107.83 63.08
  C 106.78 57.34 98.80 58.69 96.11 61.58
  A 0.76 0.76 0.0 0 1 94.81 60.88
  Q 96.34 54.70 92.37 49.74
  C 90.06 46.87 86.67 45.06 84.33 49.35
  C 80.63 56.15 83.16 62.99 84.57 70.03
  Q 85.00 72.13 84.49 74.46
  Q 83.25 80.17 83.29 86.04
  L 83.62 92.62
  A 0.69 0.69 0.0 0 1 82.94 93.35
  L 79.26 93.39
  A 0.82 0.82 0.0 0 1 78.43 92.61
  L 78.33 90.27
  L 77.66 75.48
  A 0.88 0.86 -19.1 0 1 78.04 74.71
  Q 83.02 71.24 81.83 65.02
  A 1.34 1.34 0.0 0 0 79.45 64.46
  L 78.24 66.04
  Q 77.55 66.95 77.56 65.81
  L 77.75 46.10
  Q 77.75 45.58 78.10 45.20
  Q 85.10 37.41 92.05 29.29
  C 94.96 25.90 104.96 8.78 96.61 6.59
  Q 82.20 2.81 75.62 15.56
  Q 75.05 16.66 74.30 17.84
  Q 73.97 18.37 73.67 17.82
  C 71.71 14.28 70.62 11.63 66.52 10.03
  Q 61.90 8.22 58.27 12.53
  C 55.29 16.07 54.40 18.51 56.44 22.92
  C 60.69 32.14 69.26 38.75 76.45 45.04
  Q 76.79 45.34 76.79 45.80
  L 76.85 80.04
  Q 76.85 80.64 76.42 80.21
  Q 74.72 78.51 72.33 79.16
  A 1.46 1.45 68.9 0 0 71.42 81.23
  Q 73.26 84.81 76.97 86.23
  A 0.52 0.51 -81.1 0 1 77.29 86.68
  L 77.51 92.27
  Z
  M 39.3059 120.8576
  A 0.88 0.88 0.0 0 0 38.4244 119.9792
  L 37.4644 119.9808
  A 0.88 0.88 0.0 0 0 36.5859 120.8624
  L 36.5941 125.5424
  A 0.88 0.88 0.0 0 0 37.4756 126.4208
  L 38.4356 126.4192
  A 0.88 0.88 0.0 0 0 39.3141 125.5376
  L 39.3059 120.8576
  Z
  M 29.79 125.83
  A 1.38 1.38 0.0 0 0 31.78 127.01
  L 33.34 126.24
  A 1.38 1.38 0.0 0 0 34.12 125.03
  L 34.19 121.52
  A 1.38 1.38 0.0 0 0 32.74 120.11
  L 30.91 120.21
  A 1.38 1.38 0.0 0 0 29.60 121.65
  L 29.79 125.83
  Z
  M 44.3741 122.1552
  A 1.31 1.31 0.0 0 0 43.0505 120.8590
  L 42.8305 120.8613
  A 1.31 1.31 0.0 0 0 41.5343 122.1850
  L 41.5659 125.2048
  A 1.31 1.31 0.0 0 0 42.8895 126.5010
  L 43.1095 126.4987
  A 1.31 1.31 0.0 0 0 44.4057 125.1750
  L 44.3741 122.1552
  Z
  M 48.61 122.53
  Q 48.78 122.71 49.00 122.73
  Q 49.49 122.78 49.47 122.29
  C 49.39 120.62 46.93 120.20 46.67 122.08
  A 1.37 1.35 35.1 0 0 46.83 122.95
  L 47.55 124.23
  Q 47.81 124.69 47.29 124.76
  Q 47.13 124.78 46.96 124.79
  A 0.38 0.37 -4.3 0 0 46.60 125.20
  Q 46.73 126.51 48.08 126.52
  A 1.29 1.29 0.0 0 0 49.26 124.68
  L 48.34 122.72
  A 0.17 0.17 0.0 0 1 48.61 122.53
  Z
  M 53.19 122.91
  Q 53.49 123.11 53.86 123.04
  Q 54.44 122.94 54.37 122.35
  Q 54.31 121.89 54.08 121.48
  A 1.39 1.38 29.8 0 0 51.49 122.18
  L 51.56 125.31
  A 1.37 1.37 0.0 0 0 54.19 125.84
  Q 54.42 125.33 54.32 124.79
  Q 54.24 124.30 53.74 124.37
  L 53.26 124.43
  Q 52.70 124.51 52.85 123.97
  Q 52.96 123.56 52.90 123.10
  Q 52.83 122.68 53.19 122.91
  Z
  M 59.3318 122.1193
  A 1.26 1.26 0.0 0 0 58.0895 120.8418
  L 57.8695 120.8387
  A 1.26 1.26 0.0 0 0 56.5921 122.0810
  L 56.5482 125.2207
  A 1.26 1.26 0.0 0 0 57.7905 126.4982
  L 58.0105 126.5013
  A 1.26 1.26 0.0 0 0 59.2879 125.2590
  L 59.3318 122.1193
  Z
  M 63.11 120.93
  L 62.81 120.88
  Q 61.63 120.71 61.63 121.89
  L 61.61 125.55
  A 0.60 0.60 0.0 0 0 62.18 126.16
  L 63.99 126.28
  A 0.45 0.45 0.0 0 0 64.45 125.70
  Q 63.99 124.18 64.29 122.60
  A 1.42 1.41 9.9 0 0 63.11 120.93
  Z
  M 72.46 124.31
  L 72.98 121.73
  Q 73.12 121.07 72.47 120.87
  Q 72.14 120.77 71.81 120.81
  Q 71.25 120.88 71.37 121.43
  Q 71.67 122.86 71.03 125.00
  Q 70.58 126.52 72.27 126.53
  Q 72.80 126.54 72.76 126.01
  Q 72.73 125.59 72.56 125.22
  Q 72.36 124.78 72.46 124.31
  Z
  M 77.9899 122.1364
  A 1.28 1.28 0.0 0 0 76.7347 120.8321
  L 76.5747 120.8290
  A 1.28 1.28 0.0 0 0 75.2704 122.0842
  L 75.2101 125.2236
  A 1.28 1.28 0.0 0 0 76.4653 126.5279
  L 76.6253 126.5310
  A 1.28 1.28 0.0 0 0 77.9296 125.2758
  L 77.9899 122.1364
  Z
  M 86.64 122.02
  L 87.02 121.82
  A 0.47 0.47 0.0 0 0 86.99 120.96
  Q 85.98 120.56 85.42 121.28
  Q 85.09 121.70 85.15 122.52
  Q 85.27 124.09 85.23 125.72
  A 0.72 0.71 8.0 0 0 85.78 126.44
  Q 86.37 126.58 86.97 126.43
  A 0.47 0.47 0.0 0 0 87.13 125.59
  L 86.56 125.17
  A 0.46 0.45 -50.5 0 1 86.50 124.49
  L 86.93 124.02
  A 0.68 0.68 0.0 0 0 86.75 122.96
  Q 86.61 122.89 86.51 122.77
  Q 86.08 122.30 86.64 122.02
  Z
  M 90.39 124.82
  Q 90.24 124.82 90.11 124.76
  Q 89.55 124.49 89.48 125.10
  Q 89.40 125.75 89.89 126.12
  Q 91.46 127.32 92.20 125.50
  Q 92.50 124.78 91.73 123.79
  A 0.73 0.70 17.4 0 1 91.61 123.57
  Q 91.32 122.81 91.76 122.74
  Q 92.38 122.64 92.34 122.01
  Q 92.28 121.25 91.49 120.97
  Q 89.85 120.39 89.51 122.04
  A 0.97 0.94 -54.8 0 0 89.62 122.73
  L 90.60 124.43
  A 0.26 0.26 0.0 0 1 90.39 124.82
  Z
  M 106.36 122.32
  Q 106.45 122.09 106.75 121.96
  Q 107.14 121.78 107.27 121.46
  Q 107.46 121.00 106.97 120.91
  Q 105.19 120.58 105.24 122.23
  Q 105.28 124.00 105.20 125.80
  Q 105.17 126.43 105.80 126.48
  Q 106.43 126.54 107.01 126.28
  Q 107.78 125.94 107.06 125.51
  Q 105.89 124.81 107.00 123.94
  A 0.44 0.44 0.0 0 0 107.06 123.30
  Q 106.87 123.09 106.61 122.97
  Q 106.17 122.77 106.36 122.32
  Z
  M 112.22 122.10
  A 1.19 1.19 0.0 0 0 111.03 120.91
  L 110.57 120.91
  A 1.19 1.19 0.0 0 0 109.38 122.10
  L 109.38 125.26
  A 1.19 1.19 0.0 0 0 110.57 126.45
  L 111.03 126.45
  A 1.19 1.19 0.0 0 0 112.22 125.26
  L 112.22 122.10
  Z
  M 120.7685 122.1772
  A 1.31 1.31 0.0 0 0 119.4746 120.8513
  L 119.2946 120.8491
  A 1.31 1.31 0.0 0 0 117.9687 122.1430
  L 117.9315 125.1828
  A 1.31 1.31 0.0 0 0 119.2254 126.5087
  L 119.4054 126.5109
  A 1.31 1.31 0.0 0 0 120.7313 125.2170
  L 120.7685 122.1772
  Z
  M 66.74 126.32
  L 68.62 126.32
  A 0.28 0.28 0.0 0 0 68.90 126.04
  L 68.90 125.83
  A 4.95 1.13 -89.8 0 0 67.79 120.88
  L 67.61 120.88
  A 4.95 1.13 -89.8 0 0 66.46 125.83
  L 66.46 126.04
  A 0.28 0.28 0.0 0 0 66.74 126.32
  Z
  M 82.87 121.56
  A 0.33 0.33 0.0 0 0 82.55 121.24
  L 80.61 121.20
  A 0.33 0.33 0.0 0 0 80.27 121.52
  L 80.20 125.89
  A 0.33 0.33 0.0 0 0 80.53 126.22
  L 82.69 126.19
  A 0.33 0.33 0.0 0 0 83.01 125.85
  L 82.87 121.56
  Z
  M 95.40 121.11
  A 0.27 0.27 0.0 0 1 95.31 121.11
  L 94.83 121.01
  A 0.27 0.27 0.0 0 0 94.51 121.31
  L 95.10 126.05
  A 0.27 0.27 0.0 0 0 95.37 126.29
  L 95.91 126.27
  A 0.27 0.27 0.0 0 0 96.17 126.04
  L 96.76 121.28
  A 0.27 0.27 0.0 0 0 96.46 120.98
  L 95.40 121.11
  Z
  M 100.95 124.13
  A 0.10 0.10 0.0 0 1 100.75 124.10
  Q 100.92 121.58 99.75 120.97
  Q 98.99 120.57 98.98 121.43
  L 98.96 126.00
  A 0.29 0.29 0.0 0 0 99.25 126.29
  L 102.70 126.26
  Q 102.91 126.26 102.91 126.05
  L 102.94 121.48
  A 0.55 0.55 0.0 0 0 102.26 120.94
  L 101.92 121.03
  A 0.99 0.98 81.6 0 0 101.19 122.02
  Q 101.24 123.10 100.95 124.13
  Z
  M 115.7560 121.3689
  A 0.40 0.40 0.0 0 0 115.3553 120.9696
  L 114.8753 120.9704
  A 0.40 0.40 0.0 0 0 114.4760 121.3711
  L 114.4840 125.9511
  A 0.40 0.40 0.0 0 0 114.8847 126.3504
  L 115.3647 126.3496
  A 0.40 0.40 0.0 0 0 115.7640 125.9489
  L 115.7560 121.3689
  Z"
/>
<path fill="#2e4e49" d="
  M 78.33 90.27
  Q 78.34 92.49 77.51 92.27
  L 77.29 86.68
  A 0.52 0.51 -81.1 0 0 76.97 86.23
  Q 73.26 84.81 71.42 81.23
  A 1.46 1.45 68.9 0 1 72.33 79.16
  Q 74.72 78.51 76.42 80.21
  Q 76.85 80.64 76.85 80.04
  L 76.79 45.80
  Q 76.79 45.34 76.45 45.04
  C 69.26 38.75 60.69 32.14 56.44 22.92
  C 54.40 18.51 55.29 16.07 58.27 12.53
  Q 61.90 8.22 66.52 10.03
  C 70.62 11.63 71.71 14.28 73.67 17.82
  Q 73.97 18.37 74.30 17.84
  Q 75.05 16.66 75.62 15.56
  Q 82.20 2.81 96.61 6.59
  C 104.96 8.78 94.96 25.90 92.05 29.29
  Q 85.10 37.41 78.10 45.20
  Q 77.75 45.58 77.75 46.10
  L 77.56 65.81
  Q 77.55 66.95 78.24 66.04
  L 79.45 64.46
  A 1.34 1.34 0.0 0 1 81.83 65.02
  Q 83.02 71.24 78.04 74.71
  A 0.88 0.86 -19.1 0 0 77.66 75.48
  L 78.33 90.27
  Z
  M 87.97 7.13
  Q 80.02 8.84 76.23 16.65
  Q 75.02 17.66 74.06 19.83
  A 0.40 0.40 0.0 0 1 73.30 19.70
  Q 72.96 16.14 70.09 13.56
  Q 66.67 9.76 61.23 11.47
  Q 53.11 16.02 57.62 23.37
  Q 65.14 35.60 76.69 43.86
  A 1.15 1.15 0.0 0 0 78.23 43.68
  Q 85.05 35.89 91.65 28.18
  Q 97.51 21.33 98.92 12.78
  C 100.09 5.65 92.87 6.59 87.97 7.13
  Z
  M 80.14 68.41
  C 79.90 70.09 78.68 71.04 78.27 72.48
  Q 77.98 73.50 78.71 72.73
  Q 79.87 71.53 80.55 70.01
  C 81.19 68.57 80.66 67.29 80.96 65.76
  A 0.45 0.45 0.0 0 0 80.19 65.37
  Q 79.09 66.58 78.27 68.48
  Q 78.11 68.84 78.29 69.21
  A 0.31 0.31 0.0 0 0 78.87 69.03
  Q 78.69 67.98 79.70 67.94
  A 0.42 0.41 2.2 0 1 80.14 68.41
  Z
  M 74.44 81.05
  L 75.94 82.26
  Q 76.48 82.70 76.21 82.06
  Q 75.21 79.70 72.80 80.21
  A 0.53 0.52 -20.7 0 0 72.45 80.98
  Q 73.89 83.49 76.47 84.80
  Q 77.07 85.11 76.70 84.55
  C 75.92 83.36 73.92 82.78 73.73 81.45
  Q 73.57 80.34 74.44 81.05
  Z"
/>
<path fill="#67cfa8" d="
  M 61.23 11.47
  L 60.51 13.40
  A 0.36 0.36 0.0 0 0 61.02 13.85
  Q 61.45 13.62 61.74 13.17
  A 1.40 1.38 -80.9 0 1 62.54 12.58
  Q 64.98 11.91 67.49 12.16
  A 1.40 1.39 -16.8 0 1 68.41 12.65
  Q 69.60 14.10 70.09 13.56
  Q 72.96 16.14 73.30 19.70
  A 0.40 0.40 0.0 0 0 74.06 19.83
  Q 75.02 17.66 76.23 16.65
  Q 82.30 11.47 86.40 8.90
  Q 87.94 7.93 90.34 8.15
  A 0.44 0.43 4.7 0 0 90.81 7.76
  L 90.83 7.48
  Q 90.84 7.26 90.63 7.25
  L 87.97 7.13
  C 92.87 6.59 100.09 5.65 98.92 12.78
  Q 97.51 21.33 91.65 28.18
  Q 85.05 35.89 78.23 43.68
  A 1.15 1.15 0.0 0 1 76.69 43.86
  Q 65.14 35.60 57.62 23.37
  Q 53.11 16.02 61.23 11.47
  Z
  M 91.9280 10.0538
  A 1.83 0.37 -2.7 0 0 90.0826 9.7704
  A 1.83 0.37 -2.7 0 0 88.2720 10.2262
  A 1.83 0.37 -2.7 0 0 90.1174 10.5096
  A 1.83 0.37 -2.7 0 0 91.9280 10.0538
  Z"
/>
<path fill="#d5f8ee" d="
  M 87.97 7.13
  L 90.63 7.25
  Q 90.84 7.26 90.83 7.48
  L 90.81 7.76
  A 0.44 0.43 4.7 0 1 90.34 8.15
  Q 87.94 7.93 86.40 8.90
  Q 82.30 11.47 76.23 16.65
  Q 80.02 8.84 87.97 7.13
  Z"
/>
<ellipse fill="#d5f8ee" cx="0.00" cy="0.00" transform="translate(90.10,10.14) rotate(-2.7)" rx="1.83" ry="0.37"/>
<path fill="#d5f8ee" d="
  M 70.09 13.56
  Q 69.60 14.10 68.41 12.65
  A 1.40 1.39 -16.8 0 0 67.49 12.16
  Q 64.98 11.91 62.54 12.58
  A 1.40 1.38 -80.9 0 0 61.74 13.17
  Q 61.45 13.62 61.02 13.85
  A 0.36 0.36 0.0 0 1 60.51 13.40
  L 61.23 11.47
  Q 66.67 9.76 70.09 13.56
  Z"
/>
<path fill="#2e4e49" d="
  M 84.16 86.77
  Q 84.18 87.23 84.11 87.47
  Q 83.86 88.29 83.60 87.27
  L 83.29 86.04
  Q 83.25 80.17 84.49 74.46
  Q 85.00 72.13 84.57 70.03
  C 83.16 62.99 80.63 56.15 84.33 49.35
  C 86.67 45.06 90.06 46.87 92.37 49.74
  Q 96.34 54.70 94.81 60.88
  A 0.76 0.76 0.0 0 0 96.11 61.58
  C 98.80 58.69 106.78 57.34 107.83 63.08
  C 109.71 73.32 92.59 72.13 86.71 72.59
  A 1.15 1.15 0.0 0 0 85.67 73.53
  L 84.48 80.01
  A 0.47 0.47 0.0 0 0 85.35 80.34
  Q 86.55 78.30 89.36 76.85
  C 92.74 75.11 95.30 79.69 93.00 82.52
  C 91.25 84.66 87.73 85.16 85.08 85.79
  Q 84.58 85.91 84.36 86.37
  L 84.16 86.77
  Z
  M 102.02 60.00
  Q 98.86 60.04 96.58 62.27
  L 95.21 62.95
  A 0.85 0.85 0.0 0 1 94.01 61.96
  C 95.60 56.17 93.57 50.24 88.25 47.38
  A 1.00 0.99 41.6 0 0 87.21 47.44
  C 79.81 52.71 84.44 64.79 85.86 71.63
  A 0.49 0.49 0.0 0 0 86.47 72.00
  L 88.53 71.38
  Q 88.99 71.25 89.47 71.28
  Q 97.58 71.91 103.25 69.78
  C 108.39 67.85 109.15 58.80 102.02 60.00
  Z
  M 90.64 78.68
  Q 90.45 79.71 89.54 80.35
  Q 87.14 82.03 85.09 84.18
  Q 84.66 84.63 85.28 84.56
  Q 88.85 84.16 91.26 82.61
  C 94.54 80.50 91.96 75.40 88.51 78.29
  Q 86.70 79.82 85.15 81.42
  A 0.53 0.51 -27.6 0 0 85.02 81.81
  L 85.11 82.53
  A 0.20 0.19 -24.3 0 0 85.43 82.65
  L 90.18 78.42
  A 0.28 0.28 0.0 0 1 90.64 78.68
  Z"
/>
<path fill="#67cfa8" d="
  M 96.58 62.27
  L 102.41 61.47
  Q 102.92 61.40 102.87 60.89
  Q 102.82 60.36 102.02 60.00
  C 109.15 58.80 108.39 67.85 103.25 69.78
  Q 97.58 71.91 89.47 71.28
  Q 88.99 71.25 88.53 71.38
  L 86.47 72.00
  A 0.49 0.49 0.0 0 1 85.86 71.63
  C 84.44 64.79 79.81 52.71 87.21 47.44
  A 1.00 0.99 41.6 0 1 88.25 47.38
  C 93.57 50.24 95.60 56.17 94.01 61.96
  A 0.85 0.85 0.0 0 0 95.21 62.95
  L 96.58 62.27
  Z"
/>
<path fill="#2e4e49" d="
  M 67.36 93.22
  Q 66.67 93.07 66.32 93.29
  C 67.60 90.20 63.96 90.15 62.20 89.69
  C 60.45 89.23 59.65 88.36 59.79 86.57
  Q 59.84 85.98 60.42 85.81
  Q 62.98 85.08 65.24 86.61
  A 0.41 0.41 0.0 0 0 65.87 86.18
  L 65.04 82.49
  Q 64.80 81.43 63.78 81.06
  Q 58.04 78.98 52.66 77.13
  C 35.81 71.35 48.59 52.94 57.77 66.67
  A 0.61 0.61 0.0 0 0 58.88 66.37
  Q 59.39 56.51 68.63 52.55
  C 70.10 51.92 71.76 53.33 72.29 54.80
  C 75.67 64.03 70.40 71.78 66.54 79.77
  C 65.14 82.67 66.52 84.25 66.75 87.07
  Q 67.00 90.17 67.36 93.22
  Z
  M 68.91 72.39
  L 71.97 65.47
  Q 73.60 59.62 71.12 54.51
  A 1.99 1.98 64.7 0 0 68.51 53.57
  Q 60.13 57.40 59.68 66.75
  Q 59.49 70.87 57.35 67.50
  C 55.05 63.89 47.02 58.63 45.63 66.51
  C 45.09 69.60 45.63 72.21 47.98 73.78
  C 52.65 76.91 59.12 78.62 64.71 80.41
  A 0.69 0.68 -69.3 0 0 65.54 80.03
  L 68.91 72.39
  Z
  M 64.68 89.10
  Q 64.93 89.18 65.26 89.12
  Q 65.38 89.10 65.38 88.98
  Q 65.38 88.83 65.37 88.67
  Q 65.35 88.38 65.06 88.40
  C 63.26 88.52 63.01 86.71 61.21 86.83
  A 0.44 0.44 0.0 0 0 60.92 87.57
  Q 62.06 88.77 63.76 88.89
  A 1.71 0.19 19.1 0 1 64.68 89.10
  Z"
/>
<path fill="#67cfa8" d="
  M 71.97 65.47
  Q 72.29 64.49 72.03 63.87
  A 0.23 0.23 0.0 0 0 71.59 63.91
  Q 70.93 66.92 69.19 69.45
  Q 67.57 71.79 68.91 72.39
  L 65.54 80.03
  A 0.69 0.68 -69.3 0 1 64.71 80.41
  C 59.12 78.62 52.65 76.91 47.98 73.78
  C 45.63 72.21 45.09 69.60 45.63 66.51
  C 47.02 58.63 55.05 63.89 57.35 67.50
  Q 59.49 70.87 59.68 66.75
  Q 60.13 57.40 68.51 53.57
  A 1.99 1.98 64.7 0 1 71.12 54.51
  Q 73.60 59.62 71.97 65.47
  Z
  M 50.09 67.80
  Q 48.93 68.19 49.88 69.11
  Q 50.46 69.67 50.73 68.91
  L 50.85 68.58
  A 0.60 0.60 0.0 0 0 50.09 67.80
  Z"
/>
<path fill="#d5f8ee" d="
  M 102.02 60.00
  Q 102.82 60.36 102.87 60.89
  Q 102.92 61.40 102.41 61.47
  L 96.58 62.27
  Q 98.86 60.04 102.02 60.00
  Z"
/>
<path fill="#d5f8ee" d="
  M 71.97 65.47
  L 68.91 72.39
  Q 67.57 71.79 69.19 69.45
  Q 70.93 66.92 71.59 63.91
  A 0.23 0.23 0.0 0 1 72.03 63.87
  Q 72.29 64.49 71.97 65.47
  Z"
/>
<path fill="#d5f8ee" d="
  M 79.70 67.94
  Q 78.69 67.98 78.87 69.03
  A 0.31 0.31 0.0 0 1 78.29 69.21
  Q 78.11 68.84 78.27 68.48
  Q 79.09 66.58 80.19 65.37
  A 0.45 0.45 0.0 0 1 80.96 65.76
  C 80.66 67.29 81.19 68.57 80.55 70.01
  Q 79.87 71.53 78.71 72.73
  Q 77.98 73.50 78.27 72.48
  C 78.68 71.04 79.90 70.09 80.14 68.41
  A 0.42 0.41 2.2 0 0 79.70 67.94
  Z"
/>
<path fill="#d5f8ee" d="
  M 50.09 67.80
  A 0.60 0.60 0.0 0 1 50.85 68.58
  L 50.73 68.91
  Q 50.46 69.67 49.88 69.11
  Q 48.93 68.19 50.09 67.80
  Z"
/>
<path fill="#67cfa8" d="
  M 90.64 78.68
  A 0.28 0.28 0.0 0 0 90.18 78.42
  L 85.43 82.65
  A 0.20 0.19 -24.3 0 1 85.11 82.53
  L 85.02 81.81
  A 0.53 0.51 -27.6 0 1 85.15 81.42
  Q 86.70 79.82 88.51 78.29
  C 91.96 75.40 94.54 80.50 91.26 82.61
  Q 88.85 84.16 85.28 84.56
  Q 84.66 84.63 85.09 84.18
  Q 87.14 82.03 89.54 80.35
  Q 90.45 79.71 90.64 78.68
  Z"
/>
<path fill="#d5f8ee" d="
  M 73.73 81.45
  C 73.92 82.78 75.92 83.36 76.70 84.55
  Q 77.07 85.11 76.47 84.80
  Q 73.89 83.49 72.45 80.98
  A 0.53 0.52 -20.7 0 1 72.80 80.21
  Q 75.21 79.70 76.21 82.06
  Q 76.48 82.70 75.94 82.26
  L 74.44 81.05
  Q 73.57 80.34 73.73 81.45
  Z"
/>
<path fill="#724a33" d="
  M 83.29 86.04
  L 83.60 87.27
  Q 83.86 88.29 84.11 87.47
  Q 84.18 87.23 84.16 86.77
  L 84.58 92.50
  Q 84.61 93.01 85.06 93.26
  Q 85.91 93.74 86.95 93.52
  Q 88.56 93.18 88.17 94.78
  L 84.87 108.49
  A 1.52 1.52 0.0 0 1 84.01 109.51
  Q 77.86 112.22 71.55 109.67
  A 2.29 2.24 89.1 0 1 70.30 108.43
  L 64.51 94.58
  Q 64.29 94.06 64.82 93.86
  L 66.32 93.29
  Q 66.67 93.07 67.36 93.22
  Q 68.36 93.88 69.34 93.44
  Q 69.79 93.23 70.29 93.28
  Q 73.94 93.66 77.00 93.32
  Q 77.65 93.25 77.51 92.27
  Q 78.34 92.49 78.33 90.27
  L 78.43 92.61
  A 0.82 0.82 0.0 0 0 79.26 93.39
  L 82.94 93.35
  A 0.69 0.69 0.0 0 0 83.62 92.62
  L 83.29 86.04
  Z
  M 68.52 101.43
  Q 69.29 104.86 71.60 108.33
  Q 71.89 108.76 72.37 108.94
  Q 77.21 110.77 82.62 108.83
  Q 84.24 108.25 84.06 106.95
  Q 83.97 106.35 83.38 106.18
  L 82.37 105.90
  Q 81.87 105.76 81.95 105.24
  Q 82.23 103.30 82.98 101.49
  Q 83.72 99.70 83.90 101.71
  Q 83.95 102.30 83.66 103.74
  Q 83.61 103.97 83.84 104.03
  L 84.25 104.14
  A 0.51 0.51 0.0 0 0 84.88 103.77
  L 86.99 95.03
  Q 87.16 94.32 86.43 94.32
  L 66.89 94.38
  Q 66.19 94.02 65.90 94.73
  A 0.75 0.72 -46.1 0 0 65.90 95.32
  L 68.52 101.43
  Z"
/>
<path fill="#d5f8ee" d="
  M 63.76 88.89
  Q 62.06 88.77 60.92 87.57
  A 0.44 0.44 0.0 0 1 61.21 86.83
  C 63.01 86.71 63.26 88.52 65.06 88.40
  Q 65.35 88.38 65.37 88.67
  Q 65.38 88.83 65.38 88.98
  Q 65.38 89.10 65.26 89.12
  Q 64.93 89.18 64.68 89.10
  A 1.71 0.19 19.1 0 0 63.76 88.89
  Z"
/>
<path fill="#ffffff" d="
  M 66.89 94.38
  Q 68.39 97.82 68.52 101.43
  L 65.90 95.32
  A 0.75 0.72 -46.1 0 1 65.90 94.73
  Q 66.19 94.02 66.89 94.38
  Z"
/>
<path fill="#e7b065" d="
  M 66.89 94.38
  L 86.43 94.32
  Q 87.16 94.32 86.99 95.03
  L 84.88 103.77
  A 0.51 0.51 0.0 0 1 84.25 104.14
  L 83.84 104.03
  Q 83.61 103.97 83.66 103.74
  Q 83.95 102.30 83.90 101.71
  Q 83.72 99.70 82.98 101.49
  Q 82.23 103.30 81.95 105.24
  Q 81.87 105.76 82.37 105.90
  L 83.38 106.18
  Q 83.97 106.35 84.06 106.95
  Q 84.24 108.25 82.62 108.83
  Q 77.21 110.77 72.37 108.94
  Q 71.89 108.76 71.60 108.33
  Q 69.29 104.86 68.52 101.43
  Q 68.39 97.82 66.89 94.38
  Z"
/>
<rect fill="#0d0c0c" x="-1.36" y="-3.22" transform="translate(37.95,123.20) rotate(-0.1)" width="2.72" height="6.44" rx="0.88"/>
<path fill="#0d0c0c" d="
  M 29.79 125.83
  L 29.60 121.65
  A 1.38 1.38 0.0 0 1 30.91 120.21
  L 32.74 120.11
  A 1.38 1.38 0.0 0 1 34.19 121.52
  L 34.12 125.03
  A 1.38 1.38 0.0 0 1 33.34 126.24
  L 31.78 127.01
  A 1.38 1.38 0.0 0 1 29.79 125.83
  Z"
/>
<path fill="#0d0c0c" d="
  M 44.4057 125.1750
  A 1.31 1.31 0.0 0 1 43.1095 126.4987
  L 42.8895 126.5010
  A 1.31 1.31 0.0 0 1 41.5659 125.2048
  L 41.5343 122.1850
  A 1.31 1.31 0.0 0 1 42.8305 120.8613
  L 43.0505 120.8590
  A 1.31 1.31 0.0 0 1 44.3741 122.1552
  L 44.4057 125.1750
  Z
  M 42.72 124.01
  Q 42.59 124.10 42.61 124.25
  Q 42.71 125.20 43.09 124.24
  Q 43.39 123.49 43.05 122.73
  Q 42.47 121.46 42.58 122.77
  Q 42.61 123.15 42.82 123.50
  Q 43.00 123.80 42.72 124.01
  Z"
/>
<path fill="#0d0c0c" d="
  M 48.34 122.72
  L 49.26 124.68
  A 1.29 1.29 0.0 0 1 48.08 126.52
  Q 46.73 126.51 46.60 125.20
  A 0.38 0.37 -4.3 0 1 46.96 124.79
  Q 47.13 124.78 47.29 124.76
  Q 47.81 124.69 47.55 124.23
  L 46.83 122.95
  A 1.37 1.35 35.1 0 1 46.67 122.08
  C 46.93 120.20 49.39 120.62 49.47 122.29
  Q 49.49 122.78 49.00 122.73
  Q 48.78 122.71 48.61 122.53
  A 0.17 0.17 0.0 0 0 48.34 122.72
  Z"
/>
<path fill="#0d0c0c" d="
  M 52.90 123.10
  Q 52.96 123.56 52.85 123.97
  Q 52.70 124.51 53.26 124.43
  L 53.74 124.37
  Q 54.24 124.30 54.32 124.79
  Q 54.42 125.33 54.19 125.84
  A 1.37 1.37 0.0 0 1 51.56 125.31
  L 51.49 122.18
  A 1.39 1.38 29.8 0 1 54.08 121.48
  Q 54.31 121.89 54.37 122.35
  Q 54.44 122.94 53.86 123.04
  Q 53.49 123.11 53.19 122.91
  Q 52.83 122.68 52.90 123.10
  Z"
/>
<rect fill="#0d0c0c" x="-1.37" y="-2.83" transform="translate(57.94,123.67) rotate(0.8)" width="2.74" height="5.66" rx="1.26"/>
<path fill="#0d0c0c" d="
  M 64.29 122.60
  Q 63.99 124.18 64.45 125.70
  A 0.45 0.45 0.0 0 1 63.99 126.28
  L 62.18 126.16
  A 0.60 0.60 0.0 0 1 61.61 125.55
  L 61.63 121.89
  Q 61.63 120.71 62.81 120.88
  L 63.11 120.93
  A 1.42 1.41 9.9 0 1 64.29 122.60
  Z"
/>
<path fill="#0d0c0c" d="
  M 72.56 125.22
  Q 72.73 125.59 72.76 126.01
  Q 72.80 126.54 72.27 126.53
  Q 70.58 126.52 71.03 125.00
  Q 71.67 122.86 71.37 121.43
  Q 71.25 120.88 71.81 120.81
  Q 72.14 120.77 72.47 120.87
  Q 73.12 121.07 72.98 121.73
  L 72.46 124.31
  Q 72.36 124.78 72.56 125.22
  Z"
/>
<path fill="#0d0c0c" d="
  M 77.9296 125.2758
  A 1.28 1.28 0.0 0 1 76.6253 126.5310
  L 76.4653 126.5279
  A 1.28 1.28 0.0 0 1 75.2101 125.2236
  L 75.2704 122.0842
  A 1.28 1.28 0.0 0 1 76.5747 120.8290
  L 76.7347 120.8321
  A 1.28 1.28 0.0 0 1 77.9899 122.1364
  L 77.9296 125.2758
  Z
  M 76.40 124.18
  Q 76.50 124.87 76.83 124.26
  Q 77.22 123.52 76.81 122.50
  Q 76.55 121.85 76.39 122.53
  Q 76.24 123.19 76.40 124.18
  Z"
/>
<path fill="#0d0c0c" d="
  M 86.51 122.77
  Q 86.61 122.89 86.75 122.96
  A 0.68 0.68 0.0 0 1 86.93 124.02
  L 86.50 124.49
  A 0.46 0.45 -50.5 0 0 86.56 125.17
  L 87.13 125.59
  A 0.47 0.47 0.0 0 1 86.97 126.43
  Q 86.37 126.58 85.78 126.44
  A 0.72 0.71 8.0 0 1 85.23 125.72
  Q 85.27 124.09 85.15 122.52
  Q 85.09 121.70 85.42 121.28
  Q 85.98 120.56 86.99 120.96
  A 0.47 0.47 0.0 0 1 87.02 121.82
  L 86.64 122.02
  Q 86.08 122.30 86.51 122.77
  Z"
/>
<path fill="#0d0c0c" d="
  M 90.60 124.43
  L 89.62 122.73
  A 0.97 0.94 -54.8 0 1 89.51 122.04
  Q 89.85 120.39 91.49 120.97
  Q 92.28 121.25 92.34 122.01
  Q 92.38 122.64 91.76 122.74
  Q 91.32 122.81 91.61 123.57
  A 0.73 0.70 17.4 0 0 91.73 123.79
  Q 92.50 124.78 92.20 125.50
  Q 91.46 127.32 89.89 126.12
  Q 89.40 125.75 89.48 125.10
  Q 89.55 124.49 90.11 124.76
  Q 90.24 124.82 90.39 124.82
  A 0.26 0.26 0.0 0 0 90.60 124.43
  Z"
/>
<path fill="#0d0c0c" d="
  M 106.61 122.97
  Q 106.87 123.09 107.06 123.30
  A 0.44 0.44 0.0 0 1 107.00 123.94
  Q 105.89 124.81 107.06 125.51
  Q 107.78 125.94 107.01 126.28
  Q 106.43 126.54 105.80 126.48
  Q 105.17 126.43 105.20 125.80
  Q 105.28 124.00 105.24 122.23
  Q 105.19 120.58 106.97 120.91
  Q 107.46 121.00 107.27 121.46
  Q 107.14 121.78 106.75 121.96
  Q 106.45 122.09 106.36 122.32
  Q 106.17 122.77 106.61 122.97
  Z"
/>
<path fill="#0d0c0c" d="
  M 112.22 125.26
  A 1.19 1.19 0.0 0 1 111.03 126.45
  L 110.57 126.45
  A 1.19 1.19 0.0 0 1 109.38 125.26
  L 109.38 122.10
  A 1.19 1.19 0.0 0 1 110.57 120.91
  L 111.03 120.91
  A 1.19 1.19 0.0 0 1 112.22 122.10
  L 112.22 125.26
  Z
  M 110.80 123.98
  Q 110.57 124.05 110.63 124.25
  Q 110.75 124.67 110.87 124.68
  Q 111.06 124.69 111.11 124.53
  Q 111.44 123.31 110.64 122.71
  Q 110.26 122.42 110.47 122.85
  L 110.91 123.71
  Q 111.01 123.91 110.80 123.98
  Z"
/>
<path fill="#0d0c0c" d="
  M 120.7313 125.2170
  A 1.31 1.31 0.0 0 1 119.4054 126.5109
  L 119.2254 126.5087
  A 1.31 1.31 0.0 0 1 117.9315 125.1828
  L 117.9687 122.1430
  A 1.31 1.31 0.0 0 1 119.2946 120.8491
  L 119.4746 120.8513
  A 1.31 1.31 0.0 0 1 120.7685 122.1772
  L 120.7313 125.2170
  Z
  M 119.00 123.88
  Q 118.62 124.54 119.12 124.82
  Q 119.67 125.13 119.64 124.51
  L 119.54 122.54
  A 0.30 0.30 0.0 0 0 118.94 122.51
  Q 118.89 122.85 119.04 123.23
  Q 119.18 123.57 119.00 123.88
  Z"
/>
<path fill="#0d0c0c" d="
  M 66.74 126.32
  A 0.28 0.28 0.0 0 1 66.46 126.04
  L 66.46 125.83
  A 4.95 1.13 -89.8 0 1 67.61 120.88
  L 67.79 120.88
  A 4.95 1.13 -89.8 0 1 68.90 125.83
  L 68.90 126.04
  A 0.28 0.28 0.0 0 1 68.62 126.32
  L 66.74 126.32
  Z"
/>
<path fill="#0d0c0c" d="
  M 82.87 121.56
  L 83.01 125.85
  A 0.33 0.33 0.0 0 1 82.69 126.19
  L 80.53 126.22
  A 0.33 0.33 0.0 0 1 80.20 125.89
  L 80.27 121.52
  A 0.33 0.33 0.0 0 1 80.61 121.20
  L 82.55 121.24
  A 0.33 0.33 0.0 0 1 82.87 121.56
  Z"
/>
<path fill="#0d0c0c" d="
  M 95.40 121.11
  L 96.46 120.98
  A 0.27 0.27 0.0 0 1 96.76 121.28
  L 96.17 126.04
  A 0.27 0.27 0.0 0 1 95.91 126.27
  L 95.37 126.29
  A 0.27 0.27 0.0 0 1 95.10 126.05
  L 94.51 121.31
  A 0.27 0.27 0.0 0 1 94.83 121.01
  L 95.31 121.11
  A 0.27 0.27 0.0 0 0 95.40 121.11
  Z"
/>
<path fill="#0d0c0c" d="
  M 100.95 124.13
  Q 101.24 123.10 101.19 122.02
  A 0.99 0.98 81.6 0 1 101.92 121.03
  L 102.26 120.94
  A 0.55 0.55 0.0 0 1 102.94 121.48
  L 102.91 126.05
  Q 102.91 126.26 102.70 126.26
  L 99.25 126.29
  A 0.29 0.29 0.0 0 1 98.96 126.00
  L 98.98 121.43
  Q 98.99 120.57 99.75 120.97
  Q 100.92 121.58 100.75 124.10
  A 0.10 0.10 0.0 0 0 100.95 124.13
  Z"
/>
<rect fill="#0d0c0c" x="-0.64" y="-2.69" transform="translate(115.12,123.66) rotate(-0.1)" width="1.28" height="5.38" rx="0.40"/>
<path fill="#ffffff" d="
  M 76.40 124.18
  Q 76.24 123.19 76.39 122.53
  Q 76.55 121.85 76.81 122.50
  Q 77.22 123.52 76.83 124.26
  Q 76.50 124.87 76.40 124.18
  Z"
/>
<path fill="#ffffff" d="
  M 119.04 123.23
  Q 118.89 122.85 118.94 122.51
  A 0.30 0.30 0.0 0 1 119.54 122.54
  L 119.64 124.51
  Q 119.67 125.13 119.12 124.82
  Q 118.62 124.54 119.00 123.88
  Q 119.18 123.57 119.04 123.23
  Z"
/>
<path fill="#ffffff" d="
  M 42.82 123.50
  Q 42.61 123.15 42.58 122.77
  Q 42.47 121.46 43.05 122.73
  Q 43.39 123.49 43.09 124.24
  Q 42.71 125.20 42.61 124.25
  Q 42.59 124.10 42.72 124.01
  Q 43.00 123.80 42.82 123.50
  Z"
/>
<path fill="#ffffff" d="
  M 110.91 123.71
  L 110.47 122.85
  Q 110.26 122.42 110.64 122.71
  Q 111.44 123.31 111.11 124.53
  Q 111.06 124.69 110.87 124.68
  Q 110.75 124.67 110.63 124.25
  Q 110.57 124.05 110.80 123.98
  Q 111.01 123.91 110.91 123.71
  Z"
/>
</svg>
